<?xml version="1.0" standalone="no"?>
<!DOCTYPE svg PUBLIC "-//W3C//DTD SVG 20010904//EN"
 "http://www.w3.org/TR/2001/REC-SVG-20010904/DTD/svg10.dtd">
<svg version="1.0" xmlns="http://www.w3.org/2000/svg"
 width="3317.000000pt" height="1158.000000pt" viewBox="0 0 3317.000000 1158.000000"
 preserveAspectRatio="xMidYMid meet">

<g transform="translate(0.000000,1158.000000) scale(0.100000,-0.100000)"
fill="#000000" stroke="none">
<path d="M28938 9037 c-150 -92 -146 -88 -122 -133 10 -19 22 -38 26 -40 10
-7 291 115 300 129 11 18 -44 112 -67 114 -11 1 -73 -31 -137 -70z"/>
<path d="M13376 8764 c-3 -9 -6 -240 -6 -514 0 -440 2 -500 16 -514 19 -20
153 -23 172 -4 9 9 12 97 12 335 l0 323 310 -340 c316 -345 334 -362 368 -328
19 19 17 1021 -2 1037 -9 8 -45 11 -98 9 l-83 -3 -5 -316 -5 -316 -304 324
c-278 295 -307 323 -337 323 -20 0 -34 -6 -38 -16z"/>
<path d="M23454 8761 c-124 -45 -194 -141 -194 -265 0 -141 67 -219 272 -320
142 -68 178 -98 192 -159 9 -37 -19 -94 -55 -112 -15 -8 -53 -15 -83 -15 -46
0 -70 8 -143 45 -48 25 -94 45 -103 45 -17 0 -80 -101 -80 -130 0 -36 111
-101 212 -125 198 -47 383 26 448 177 28 65 25 170 -8 233 -38 76 -135 149
-263 201 -87 35 -157 81 -174 115 -46 87 23 169 132 156 27 -3 81 -23 127 -47
l81 -42 31 36 c17 19 39 51 49 70 19 34 19 36 0 56 -24 26 -108 67 -176 85
-76 21 -202 19 -265 -4z"/>
<path d="M11202 8758 c-15 -15 -17 -629 -2 -708 63 -333 484 -456 714 -210
104 111 116 171 116 578 0 197 -4 320 -10 333 -9 16 -22 19 -93 19 -51 0 -88
-5 -95 -12 -9 -9 -12 -101 -12 -353 0 -339 0 -342 -23 -386 -36 -68 -93 -103
-175 -107 -84 -4 -143 23 -187 86 l-30 44 -5 351 c-3 194 -9 358 -13 365 -11
16 -168 17 -185 0z"/>
<path d="M15632 8758 c-9 -9 -12 -137 -12 -515 0 -576 -10 -523 100 -523 110
0 100 -53 100 523 0 378 -3 506 -12 515 -7 7 -42 12 -88 12 -46 0 -81 -5 -88
-12z"/>
<path d="M17052 8758 c-8 -8 -8 -19 2 -42 36 -86 450 -983 459 -994 6 -7 21
-12 34 -10 21 3 52 64 260 515 140 304 233 519 229 528 -5 13 -22 15 -102 13
l-97 -3 -146 -327 c-80 -180 -149 -324 -152 -320 -4 4 -68 147 -144 317 -76
171 -142 316 -148 323 -12 16 -178 17 -195 0z"/>
<path d="M19270 8751 c-6 -13 -10 -189 -10 -510 0 -432 2 -491 16 -505 13 -14
57 -16 323 -16 225 0 310 3 319 12 7 7 12 41 12 83 0 42 -5 76 -12 83 -9 9
-75 12 -235 12 l-223 0 0 125 0 125 188 0 c133 0 192 4 200 12 7 7 12 41 12
83 0 42 -5 76 -12 83 -8 8 -67 12 -200 12 l-188 0 0 120 0 120 233 2 232 3 0
85 0 85 -322 3 c-310 2 -323 2 -333 -17z"/>
<path d="M21247 8764 c-4 -4 -7 -238 -7 -520 0 -457 2 -513 16 -518 9 -3 44
-6 79 -6 102 0 95 -16 95 211 l0 199 83 0 82 0 94 -187 c51 -104 100 -196 109
-205 21 -25 173 -26 196 -2 18 18 26 0 -108 248 -47 88 -85 160 -84 161 2 1
24 13 49 28 57 33 115 96 142 156 29 64 29 178 0 243 -30 66 -95 133 -162 165
l-56 28 -260 3 c-143 2 -264 0 -268 -4z m493 -196 c98 -51 107 -168 20 -242
-31 -25 -35 -26 -176 -26 l-144 0 0 145 0 145 128 0 c113 0 133 -3 172 -22z"/>
<path d="M25237 8763 c-4 -3 -7 -237 -7 -519 0 -457 2 -513 16 -518 25 -9 147
-7 164 4 13 8 15 77 18 505 2 336 -1 502 -8 515 -9 18 -21 20 -94 20 -45 0
-86 -3 -89 -7z"/>
<path d="M26682 8758 c-12 -12 -17 -124 -6 -152 5 -13 26 -16 130 -16 l124 0
0 -423 c0 -316 3 -426 12 -435 19 -19 153 -16 172 4 14 13 16 67 16 434 l0
419 123 3 122 3 0 85 0 85 -340 3 c-257 2 -344 -1 -353 -10z"/>
<path d="M28637 8763 c-4 -3 -7 -235 -7 -514 0 -492 1 -509 19 -519 12 -6 132
-10 320 -10 349 0 331 -5 331 95 0 98 7 95 -251 95 l-219 0 0 125 0 125 179 0
c99 0 186 3 195 6 13 5 16 23 16 89 0 66 -3 84 -16 89 -9 3 -96 6 -195 6
l-179 0 0 120 0 120 229 0 c259 0 241 -6 241 86 0 101 25 94 -339 94 -175 0
-321 -3 -324 -7z"/>
<path d="M3382 8740 c-67 -41 -63 107 -59 -2013 l3 -1922 22 -138 c95 -583
355 -1070 780 -1459 357 -328 800 -536 1302 -615 105 -16 201 -18 1085 -18
875 0 981 2 1086 18 241 36 501 114 707 212 664 316 1155 916 1331 1625 70
283 65 116 68 2283 3 1772 2 1960 -12 1988 -32 61 -13 60 -810 57 l-725 -3
-32 -33 -33 -32 -3 -1090 c-2 -1062 -3 -1090 -21 -1090 -16 0 -20 10 -26 53
-47 374 -329 689 -696 777 -46 11 -100 20 -119 20 l-35 0 3 150 3 150 215 0
214 0 0 501 0 501 -347 -5 c-367 -6 -447 -14 -653 -67 -635 -162 -1173 -607
-1453 -1200 -93 -197 -169 -464 -197 -690 -15 -125 -12 -402 5 -536 53 -400
210 -771 465 -1095 275 -350 689 -626 1128 -749 220 -63 305 -73 677 -79 l340
-6 -85 -30 -85 -30 -880 -3 c-778 -2 -889 -1 -960 13 -311 63 -555 298 -642
617 -16 58 -18 213 -23 1973 -4 1526 -8 1915 -18 1932 -30 54 -14 53 -779 53
-692 0 -709 -1 -741 -20z m1308 -2065 l5 -1850 27 -99 c102 -368 394 -662 752
-755 148 -39 262 -43 1116 -38 732 3 823 5 890 21 405 95 700 377 813 775 21
74 22 97 27 866 l5 790 115 3 c126 3 150 13 150 63 0 48 -29 59 -157 59 l-113
0 2 1008 3 1007 575 0 575 0 0 -1855 c0 -2057 4 -1928 -65 -2195 -203 -787
-814 -1400 -1594 -1600 -275 -70 -267 -70 -1291 -70 -966 0 -988 1 -1210 46
-330 68 -688 242 -950 461 -442 369 -715 864 -790 1431 -13 103 -15 355 -15
1953 l0 1834 563 -2 562 -3 5 -1850z m2380 835 l0 -150 -29 0 c-50 0 -170 -29
-245 -59 -303 -121 -517 -391 -568 -712 l-12 -79 -128 0 c-70 0 -128 3 -128 6
0 4 7 53 16 111 77 524 498 946 1020 1022 32 5 62 9 67 10 4 0 7 -66 7 -149z
m-850 -1145 c0 -52 32 -182 65 -263 63 -156 192 -317 329 -411 107 -74 264
-132 419 -156 l37 -6 0 -146 0 -145 -57 7 c-258 32 -554 186 -729 379 -183
203 -286 433 -319 714 l-6 52 131 0 130 0 0 -25z m1868 -747 c-4 -877 2 -813
-90 -998 -45 -91 -65 -118 -148 -201 -80 -81 -184 -159 -212 -159 -5 0 -8 218
-8 485 l0 485 -215 0 -215 0 0 150 0 149 38 6 c318 49 569 222 706 486 48 92
90 219 101 312 6 47 11 57 27 57 18 0 19 -16 16 -772z"/>
<path d="M12291 7370 c-506 -52 -938 -422 -1066 -916 -36 -139 -49 -292 -35
-422 56 -535 407 -942 930 -1079 130 -34 372 -43 505 -19 230 43 444 147 587
286 39 38 58 64 58 80 0 18 -35 59 -128 152 -70 70 -135 128 -143 128 -9 0
-56 -27 -105 -60 -156 -106 -292 -150 -464 -150 -343 0 -633 224 -732 566 -33
112 -33 323 0 437 66 230 220 414 426 507 96 44 176 60 302 60 183 0 336 -51
484 -163 41 -32 82 -57 90 -57 17 0 257 246 266 272 9 28 -17 64 -86 119 -212
170 -420 248 -705 262 -55 3 -138 1 -184 -3z"/>
<path d="M16170 7373 c-8 -3 -23 -12 -32 -21 -17 -14 -18 -83 -18 -1189 0
-1160 0 -1173 20 -1193 19 -19 33 -20 198 -20 138 0 183 3 198 14 18 14 19 37
24 765 l5 750 710 -779 709 -780 56 0 c33 0 64 6 76 14 19 14 19 39 22 1184
l2 1169 -21 26 -20 27 -183 0 c-142 0 -187 -3 -202 -14 -18 -14 -19 -36 -24
-734 l-5 -719 -709 753 -709 754 -41 -1 c-23 0 -48 -3 -56 -6z"/>
<path d="M24150 7368 c-20 -11 -131 -243 -562 -1177 -296 -640 -538 -1172
-538 -1182 0 -11 9 -28 21 -40 19 -19 30 -20 204 -17 182 3 185 3 209 28 13
14 63 112 111 218 l88 192 507 0 507 0 48 -107 c109 -245 143 -309 170 -321
17 -8 86 -12 200 -12 162 0 177 2 195 20 11 11 20 27 20 36 0 20 -1057 2334
-1074 2352 -18 19 -78 24 -106 10z m209 -1224 l168 -369 -169 -3 c-92 -1 -244
-1 -337 0 l-169 3 166 373 c91 204 167 370 169 368 2 -2 79 -169 172 -372z"/>
<path d="M13934 7332 c-33 -22 -34 -42 -34 -1192 l0 -1141 25 -24 24 -25 716
0 c702 0 715 0 735 20 18 18 20 33 20 188 0 151 -2 171 -18 185 -17 15 -69 17
-535 17 l-517 0 0 300 0 300 434 0 435 0 20 26 c19 24 21 40 21 179 0 139 -2
155 -21 179 l-20 26 -435 0 -434 0 0 280 0 280 518 0 c490 0 520 1 535 18 14
16 17 45 17 190 0 165 -1 171 -22 186 -20 14 -106 16 -738 16 -393 0 -720 -4
-726 -8z"/>
<path d="M18720 7320 c-18 -18 -20 -33 -20 -185 0 -152 2 -167 20 -185 19 -19
33 -20 295 -20 l275 0 0 -974 0 -975 22 -15 c18 -13 55 -16 199 -16 159 0 179
2 200 19 l24 19 3 971 2 971 274 0 c252 0 274 1 289 18 14 16 17 45 17 190 0
165 -1 171 -22 186 -20 14 -112 16 -790 16 -755 0 -768 0 -788 -20z"/>
<path d="M20904 7319 c-18 -20 -19 -54 -19 -1176 l0 -1155 24 -19 c21 -17 41
-19 202 -19 166 0 180 1 199 20 19 19 20 33 20 465 l0 445 190 0 190 0 229
-459 c128 -255 237 -461 246 -465 9 -3 105 -6 214 -6 221 0 241 5 241 62 0 21
-74 167 -235 466 -129 239 -234 436 -232 437 1 1 38 21 81 44 193 103 322 250
386 441 34 100 39 261 11 370 -32 128 -88 234 -173 325 -115 123 -224 188
-382 225 -75 18 -121 20 -627 20 -542 0 -546 0 -565 -21z m1128 -427 c77 -37
130 -92 165 -169 22 -48 25 -65 21 -141 -5 -106 -35 -169 -115 -242 -88 -80
-102 -83 -455 -88 l-308 -4 0 342 0 341 313 -3 312 -3 67 -33z"/>
<path d="M25860 7320 c-20 -20 -20 -33 -20 -1175 0 -1142 0 -1155 20 -1175 20
-20 33 -20 670 -20 637 0 650 0 670 20 18 18 20 33 20 183 0 131 -3 167 -16
185 l-15 22 -450 0 -449 0 0 964 c0 959 0 963 -21 990 l-20 26 -185 0 c-171 0
-185 -1 -204 -20z"/>
<path d="M27791 7314 c-21 -27 -21 -28 -21 -1171 l0 -1144 25 -24 24 -25 713
0 c630 0 716 2 736 16 21 15 22 21 22 188 0 155 -2 175 -18 189 -17 15 -69 17
-535 17 l-517 0 0 300 0 300 433 0 c237 0 437 4 443 8 28 18 34 56 34 200 0
136 -2 152 -21 176 l-20 26 -435 0 -434 0 0 280 0 280 518 0 c490 0 520 1 535
18 14 16 17 44 17 189 0 152 -2 172 -18 186 -17 16 -83 17 -740 17 l-721 0
-20 -26z"/>
<path d="M11170 4075 l0 -135 9085 0 9085 0 0 135 0 135 -9085 0 -9085 0 0
-135z"/>
<path d="M12084 3210 c-104 -21 -195 -93 -234 -183 -56 -129 -31 -259 69 -358
124 -122 307 -125 435 -8 74 67 100 129 101 234 0 68 -4 89 -28 137 -63 128
-211 205 -343 178z m146 -135 c61 -32 110 -112 110 -180 0 -70 -49 -148 -115
-183 -39 -20 -131 -20 -170 0 -134 70 -154 236 -40 336 19 18 48 34 63 38 15
3 32 7 37 9 17 6 88 -7 115 -20z"/>
<path d="M13570 3206 c-73 -16 -114 -39 -166 -92 -138 -143 -101 -402 72 -496
152 -82 341 -37 430 104 102 160 40 376 -129 457 -74 35 -133 43 -207 27z
m161 -137 c44 -22 82 -69 99 -122 38 -120 -65 -252 -195 -251 -117 2 -195 82
-195 200 0 154 152 244 291 173z"/>
<path d="M15690 3213 c-58 -10 -91 -26 -124 -63 -41 -45 -53 -96 -37 -151 19
-63 56 -96 166 -148 56 -27 105 -57 109 -66 13 -34 6 -64 -21 -85 -36 -29 -84
-23 -170 21 -70 36 -69 36 -105 -30 -11 -21 -10 -25 14 -46 42 -36 135 -67
203 -68 138 -1 240 97 215 208 -16 73 -74 125 -180 165 -105 39 -145 95 -100
140 26 26 75 26 142 0 29 -11 60 -20 68 -20 20 0 54 56 46 76 -14 35 -159 79
-226 67z"/>
<path d="M26209 3198 c-15 -21 -16 -21 -68 -3 -117 39 -221 3 -256 -89 -36
-94 3 -155 154 -243 111 -65 128 -78 148 -116 11 -22 12 -35 3 -62 -15 -46
-54 -69 -115 -68 -87 1 -145 46 -168 130 -6 24 -15 43 -19 43 -4 0 -8 -51 -8
-112 0 -113 0 -113 19 -88 l19 24 59 -18 c130 -42 239 -12 282 77 26 55 26 89
0 144 -20 42 -57 69 -209 156 -104 58 -129 121 -69 171 23 20 42 26 75 26 80
0 135 -45 155 -127 6 -24 15 -43 20 -43 5 0 9 50 9 110 0 61 -3 110 -7 110 -5
-1 -15 -10 -24 -22z"/>
<path d="M29259 3197 c-15 -20 -17 -20 -64 -4 -97 33 -188 17 -238 -42 -54
-64 -45 -153 21 -213 21 -19 82 -60 135 -91 108 -64 127 -85 127 -140 0 -99
-142 -127 -234 -46 -24 20 -38 45 -47 79 -7 28 -16 50 -21 50 -4 0 -8 -51 -8
-112 0 -113 1 -113 19 -89 l19 25 63 -20 c75 -22 153 -23 196 -1 44 23 91 81
99 123 16 87 -32 147 -181 230 -115 64 -145 92 -145 137 0 53 39 87 102 87 84
0 134 -41 157 -128 7 -23 16 -42 21 -42 12 0 14 207 3 213 -5 3 -15 -4 -24
-16z"/>
<path d="M11165 3197 c-3 -7 -4 -147 -3 -312 l3 -300 55 0 55 0 3 128 3 127
124 0 124 0 3 -127 3 -128 43 -3 c74 -5 72 -15 72 313 0 328 2 318 -72 313
l-43 -3 -3 -122 -3 -123 -124 0 -125 0 0 113 c0 75 -4 117 -12 125 -16 16 -97
16 -103 -1z"/>
<path d="M12642 3198 c-9 -9 -12 -90 -12 -304 0 -327 -2 -317 72 -312 l43 3 5
188 5 187 174 -190 c112 -124 179 -190 190 -188 14 3 16 34 16 313 l0 310 -46
3 c-30 2 -50 -2 -57 -11 -7 -9 -13 -76 -14 -187 l-3 -173 -170 187 c-93 102
-175 186 -180 186 -6 0 -16 -5 -23 -12z"/>
<path d="M14135 3188 c-3 -13 -4 -153 -3 -313 l3 -290 55 0 55 0 3 118 3 117
68 0 69 0 63 -117 64 -118 54 -3 c30 -2 58 1 64 7 9 9 -25 75 -104 207 l-19
31 40 28 c53 37 95 120 87 175 -8 60 -39 111 -86 145 l-43 30 -183 3 -184 4
-6 -24z m356 -117 c37 -37 38 -78 4 -115 -23 -25 -28 -26 -135 -26 l-110 0 0
85 0 85 106 0 c103 0 106 -1 135 -29z"/>
<path d="M14872 3198 c-13 -13 -16 -47 -6 -72 5 -12 21 -16 75 -16 l69 0 0
-215 0 -214 -87 -3 -88 -3 0 -45 0 -45 235 0 235 0 0 45 0 45 -87 3 -88 3 0
214 0 215 71 0 70 0 -3 48 -3 47 -190 3 c-140 2 -194 -1 -203 -10z"/>
<path d="M16560 3190 c0 -5 10 -10 23 -10 13 0 32 -6 43 -14 18 -13 19 -31 24
-238 5 -217 6 -226 29 -260 34 -48 77 -76 141 -88 132 -26 255 29 289 129 6
20 11 105 11 210 0 224 10 260 68 261 12 0 22 5 22 10 0 6 -43 10 -110 10 -67
0 -110 -4 -110 -10 0 -5 13 -10 30 -10 57 0 62 -23 58 -254 -3 -189 -5 -207
-24 -233 -71 -96 -247 -99 -295 -6 -10 21 -15 84 -17 244 -4 239 -1 249 59
249 16 0 29 5 29 10 0 6 -52 10 -135 10 -83 0 -135 -4 -135 -10z"/>
<path d="M17370 3191 c0 -5 13 -11 29 -14 15 -3 43 -18 60 -33 l33 -27 -4
-237 c-3 -258 -6 -270 -59 -270 -16 0 -29 -4 -29 -10 0 -6 44 -10 111 -10 71
0 108 4 104 10 -3 6 -17 10 -30 10 -52 0 -55 14 -55 242 0 116 2 209 4 207 2
-2 90 -110 196 -239 105 -129 198 -236 206 -238 12 -3 14 41 14 287 0 277 1
291 19 301 11 5 29 10 40 10 12 0 21 5 21 10 0 6 -42 10 -105 10 -63 0 -105
-4 -105 -10 0 -5 11 -10 24 -10 52 0 56 -15 56 -226 0 -107 -2 -194 -4 -194
-2 0 -84 99 -182 220 l-179 220 -82 0 c-46 0 -83 -4 -83 -9z"/>
<path d="M18220 3190 c0 -5 13 -10 28 -10 60 0 62 -11 62 -288 0 -272 -2 -282
-55 -282 -13 0 -27 -4 -30 -10 -4 -6 42 -10 129 -10 84 0 136 4 136 10 0 6
-11 10 -25 10 -14 0 -34 9 -45 20 -19 19 -20 33 -20 265 0 232 1 246 20 265
11 11 31 20 45 20 14 0 25 5 25 10 0 6 -52 10 -135 10 -83 0 -135 -4 -135 -10z"/>
<path d="M18700 3125 c0 -48 4 -74 10 -70 6 3 10 15 10 25 0 10 11 31 24 47
21 24 32 28 95 31 l71 4 0 -248 c0 -279 -4 -297 -58 -302 -17 -2 -32 -7 -32
-13 0 -5 56 -9 130 -9 80 0 130 4 130 10 0 6 -9 10 -21 10 -11 0 -29 5 -40 10
-18 10 -19 24 -19 275 l0 265 55 0 c31 0 68 -6 84 -14 27 -14 51 -53 51 -81 0
-8 5 -15 10 -15 7 0 10 27 8 73 l-3 72 -252 3 -253 2 0 -75z"/>
<path d="M19410 3191 c0 -6 15 -11 32 -13 55 -5 59 -23 56 -296 -3 -228 -4
-245 -22 -258 -11 -8 -30 -14 -43 -14 -13 0 -23 -5 -23 -10 0 -7 81 -9 237 -8
l236 3 24 70 c13 38 22 74 20 79 -2 6 -18 -11 -36 -37 -50 -73 -62 -78 -187
-75 l-109 3 -3 128 -3 127 90 0 c85 0 91 -1 110 -26 12 -15 21 -35 21 -45 0
-11 5 -19 10 -19 6 0 10 44 10 111 0 71 -4 108 -10 104 -5 -3 -10 -15 -10 -26
0 -10 -9 -28 -20 -39 -17 -17 -33 -20 -110 -20 l-90 0 0 115 0 115 113 0 c126
0 131 -2 160 -70 12 -29 16 -32 22 -17 4 9 4 42 0 72 l-6 55 -235 0 c-139 0
-234 -4 -234 -9z"/>
<path d="M20130 3191 c0 -6 10 -11 23 -11 13 0 32 -6 43 -14 18 -14 19 -29 19
-271 0 -242 -1 -257 -19 -271 -11 -8 -30 -14 -43 -14 -13 0 -23 -4 -23 -10 0
-6 65 -10 174 -10 196 0 272 15 336 69 46 37 89 117 100 183 10 64 -3 156 -30
208 -25 48 -97 112 -147 129 -50 18 -433 28 -433 12z m381 -59 c99 -51 146
-171 121 -305 -26 -138 -134 -216 -274 -200 l-48 6 0 258 c0 196 3 259 13 262
6 3 40 6 73 6 49 1 73 -5 115 -27z"/>
<path d="M21400 3190 c0 -5 13 -10 28 -10 57 0 62 -18 62 -218 0 -209 10 -270
51 -317 63 -72 220 -93 316 -44 95 49 113 108 113 368 0 160 2 180 18 194 10
10 31 17 45 17 15 0 27 5 27 10 0 6 -43 10 -110 10 -67 0 -110 -4 -110 -10 0
-5 11 -10 24 -10 53 0 56 -14 56 -233 0 -241 -8 -270 -82 -306 -91 -44 -196
-21 -235 51 -26 49 -33 426 -9 463 11 17 26 25 46 25 17 0 30 5 30 10 0 6 -52
10 -135 10 -83 0 -135 -4 -135 -10z"/>
<path d="M22210 3190 c0 -5 10 -10 23 -10 24 0 64 -23 84 -50 9 -11 12 -81 13
-251 0 -216 -2 -237 -18 -252 -10 -10 -28 -17 -40 -17 -11 0 -24 -4 -27 -10
-4 -6 33 -10 104 -10 62 0 111 4 111 9 0 6 -15 11 -32 13 -54 5 -59 29 -56
253 l3 197 198 -241 c109 -133 202 -241 207 -241 6 0 10 109 10 283 0 262 1
285 18 300 10 10 31 17 45 17 15 0 27 5 27 10 0 6 -43 10 -110 10 -62 0 -110
-4 -110 -9 0 -6 15 -11 32 -13 53 -5 59 -30 56 -243 l-3 -186 -183 226 -183
225 -85 0 c-49 0 -84 -4 -84 -10z"/>
<path d="M23070 3190 c0 -5 10 -10 23 -10 13 0 32 -6 43 -14 18 -14 19 -28 19
-269 0 -277 -2 -287 -56 -287 -16 0 -29 -4 -29 -10 0 -6 50 -10 130 -10 80 0
130 4 130 10 0 6 -9 10 -21 10 -11 0 -29 5 -40 10 -18 10 -19 24 -19 275 0
251 1 265 19 275 11 5 29 10 40 10 12 0 21 5 21 10 0 6 -50 10 -130 10 -80 0
-130 -4 -130 -10z"/>
<path d="M23520 3191 c0 -5 14 -12 31 -16 39 -9 36 -3 178 -330 64 -148 121
-270 126 -270 5 0 58 117 117 260 127 309 132 320 169 335 51 21 32 30 -66 30
-91 0 -123 -11 -70 -24 48 -12 43 -43 -41 -251 -44 -107 -81 -195 -84 -195
-10 0 -171 385 -170 408 0 17 9 27 30 35 17 6 30 15 30 19 0 4 -56 8 -125 8
-69 0 -125 -4 -125 -9z"/>
<path d="M24360 3190 c0 -5 9 -10 21 -10 11 0 29 -5 40 -10 18 -10 19 -24 19
-269 0 -237 -1 -259 -18 -274 -10 -10 -28 -17 -40 -17 -12 0 -22 -4 -22 -10 0
-6 85 -10 234 -10 l234 0 23 68 c12 37 24 73 27 80 11 30 -19 8 -42 -33 -38
-64 -65 -75 -189 -75 -86 0 -106 3 -111 16 -3 9 -6 67 -6 130 l0 114 88 0 c99
0 126 -12 135 -60 4 -16 11 -30 17 -30 6 0 10 40 10 104 0 103 -12 145 -25 86
-12 -53 -27 -60 -131 -60 l-94 0 0 115 0 115 113 0 c126 0 144 -7 162 -61 7
-19 15 -33 18 -31 4 1 7 4 7 7 0 3 0 32 0 65 l0 60 -235 0 c-150 0 -235 -4
-235 -10z"/>
<path d="M25070 3191 c0 -6 13 -11 29 -11 60 0 61 -6 61 -285 0 -275 -2 -285
-55 -285 -13 0 -27 -4 -30 -10 -4 -6 42 -10 129 -10 84 0 136 4 136 10 0 6
-13 10 -29 10 -50 0 -61 29 -61 152 l0 108 33 0 c30 0 39 -9 132 -140 l100
-140 83 0 c82 0 109 13 51 25 -17 4 -46 20 -64 37 -32 27 -181 227 -173 231 1
2 24 12 51 25 59 27 87 70 87 133 0 58 -31 107 -85 134 -35 17 -64 20 -217 23
-123 3 -178 0 -178 -7z m321 -48 c31 -18 59 -67 59 -102 0 -76 -62 -131 -147
-131 l-53 0 0 118 c0 65 3 122 7 125 13 14 105 7 134 -10z"/>
<path d="M26510 3190 c0 -5 10 -10 23 -10 13 0 32 -6 43 -14 18 -14 19 -28 19
-269 0 -277 -2 -287 -56 -287 -16 0 -29 -4 -29 -10 0 -6 50 -10 130 -10 80 0
130 4 130 10 0 6 -9 10 -21 10 -11 0 -29 5 -40 10 -18 10 -19 24 -19 270 0
281 2 290 56 290 13 0 24 5 24 10 0 6 -50 10 -130 10 -80 0 -130 -4 -130 -10z"/>
<path d="M26985 3134 c-9 -78 6 -105 24 -44 15 50 50 70 126 70 l55 0 0 -259
c0 -281 -2 -291 -55 -291 -13 0 -27 -4 -30 -10 -4 -6 42 -10 130 -10 88 0 134
4 130 10 -3 6 -17 10 -30 10 -51 0 -55 22 -55 298 l0 254 69 -4 c77 -4 106
-21 119 -70 4 -16 11 -29 15 -29 4 1 7 3 7 6 0 3 0 34 0 70 l0 65 -249 0 -249
0 -7 -66z"/>
<path d="M27700 3190 c0 -5 9 -10 21 -10 11 0 29 -5 40 -10 18 -10 19 -24 19
-275 0 -251 -1 -265 -19 -275 -11 -5 -29 -10 -40 -10 -12 0 -21 -4 -21 -10 0
-6 50 -10 130 -10 80 0 130 4 130 10 0 6 -9 10 -21 10 -11 0 -29 5 -40 10 -18
10 -19 24 -19 275 0 251 1 265 19 275 11 5 29 10 40 10 12 0 21 5 21 10 0 6
-50 10 -130 10 -80 0 -130 -4 -130 -10z"/>
<path d="M28160 3190 c0 -5 13 -10 29 -10 57 0 61 -17 61 -287 0 -230 -1 -244
-20 -263 -11 -11 -31 -20 -45 -20 -14 0 -25 -5 -25 -10 0 -7 81 -9 236 -8
l237 3 24 64 c33 88 26 108 -15 48 -51 -73 -63 -78 -188 -75 l-109 3 -3 128
-3 127 86 0 c48 0 95 -5 105 -10 11 -6 22 -26 26 -45 13 -69 24 -33 24 76 0
71 -4 108 -10 104 -5 -3 -10 -14 -10 -23 0 -10 -7 -28 -16 -40 -14 -20 -23
-22 -110 -22 l-94 0 0 115 0 115 113 0 c105 0 115 -2 134 -22 11 -13 23 -35
27 -50 3 -16 11 -28 16 -28 11 0 13 81 4 118 l-6 22 -234 0 c-149 0 -234 -4
-234 -10z"/>
</g>
</svg>
